# xmcd
#
# Track frame offsets:
#	150
#	13009
#	30120
#	45562
#	63460
#	80552
#	100012
#	115270
#	130460
#	148970
#	168617
#	186692
#	205695
#	220870
#	242120
#	260307
#	275667
#	293435
#
# Disc length: 4118 seconds
#
# Revision: 0
# Processed by: cddbd v1.5PL3 Copyright (c) Steve Scherf et al.
# Submitted via: dBpowerAMP V4.0
#
DISCID=0d101412
DTITLE=Guitar - Romantic Guitar
DYEAR=1900
DGENRE=
TTITLE0=Smoke Get In Your Eyes
TTITLE1=Woman In Love
TTITLE2=I Cant Stop Loving You
TTITLE3=Every Time You Go Away
TTITLE4=I Just Called
TTITLE5=Still Got The Blues
TTITLE6=Blue Eyes
TTITLE7=Three Coins In The Fountain
TTITLE8=My Way
TTITLE9=Nothing Compares 2U
TTITLE10=Song for Guy
TTITLE11=Waiting 4 A Girl
TTITLE12=Bewitched
TTITLE13=Dreaming
TTITLE14=More Than I Can Bear
TTITLE15=Street Where U Live
TTITLE16=Back 2 Sanfrancisco
TTITLE17=Georgia On My Mind
EXTD=
EXTT0=
EXTT1=
EXTT2=
EXTT3=
EXTT4=
EXTT5=
EXTT6=
EXTT7=
EXTT8=
EXTT9=
EXTT10=
EXTT11=
EXTT12=
EXTT13=
EXTT14=
EXTT15=
EXTT16=
EXTT17=
PLAYORDER=
